# xmcd
#
# Track frame offsets:
# 150
# 16409
# 37671
# 52523
# 71544
# 90850
# 110432
# 129207
# 147117
# 164287
# 187702
# 215347
# 237208
#
# Disc length: 3407 seconds
#
#
# Revision: 0
# Processed by: cddbd v1.5.2PL0 Copyright (c) Steve Scherf et al.
# Submitted via: FreeRIP 2.951 
#
DISCID=8f0d4d0d
DTITLE=Márcio Pacheco - Coração Adorador
DYEAR=2007
DGENRE=Gospel
TTITLE0=Rei da Glória
TTITLE1=Teu Altar
TTITLE2=Morada Santa
TTITLE3=Teu Olhar
TTITLE4=Ele me deu Vitória
TTITLE5=Coração Adorador
TTITLE6=A Paz é Possível
TTITLE7=Está entre nós
TTITLE8=A Volta
TTITLE9=Joga-te aos pés do Salvador
TTITLE10=Voz amiga
TTITLE11=Quem tem Jesus tem Tudo
TTITLE12=Estar em Ti
EXTD=
EXTT0=
EXTT1=
EXTT2=
EXTT3=
EXTT4=
EXTT5=
EXTT6=
EXTT7=
EXTT8=
EXTT9=
EXTT10=
EXTT11=
EXTT12=
PLAYORDER=
